<?xml version="1.0" encoding="UTF-8" standalone="no"?><!DOCTYPE svg PUBLIC "-//W3C//DTD SVG 1.1//EN" "http://www.w3.org/Graphics/SVG/1.1/DTD/svg11.dtd"><svg width="100%" height="100%" viewBox="0 0 769 336" version="1.1" xmlns="http://www.w3.org/2000/svg" xmlns:xlink="http://www.w3.org/1999/xlink" xml:space="preserve" xmlns:serif="http://www.serif.com/" style="fill-rule:evenodd;clip-rule:evenodd;stroke-linejoin:round;stroke-miterlimit:1.41421;"><g><path d="M251.356,22.453c80.094,46.241 107.577,148.81 61.335,228.903c-46.242,80.094 -148.81,107.577 -228.904,61.335c-80.093,-46.242 -107.576,-148.81 -61.334,-228.904c46.241,-80.093 148.81,-107.576 228.903,-61.334Z" style="fill:#dedede;"/><path d="M329.633,210.307c-3.711,14.058 -9.327,27.859 -16.942,41.049c-8.782,15.211 -19.596,28.525 -31.902,39.796l-187.688,5.407l0,-45.203l236.532,-41.049Z" style="fill-opacity:0.0862745;"/><path d="M189.443,59.041l61.183,35.324l-96.342,166.87l-61.183,-35.324l96.342,-166.87Z" style="fill:#f1be4e;"/><path d="M198.282,43.731c7.268,-12.588 23.389,-16.908 35.978,-9.64l15.581,8.996c12.58,7.263 16.896,23.373 9.634,35.952l-8.849,15.326l-61.183,-35.324l8.839,-15.31Z" style="fill:#f1a9ab;"/><path d="M231.773,32.822l20.394,11.775l-118.278,204.863l-20.394,-11.774l118.278,-204.864Z" style="fill:#fff;fill-opacity:0.247059;"/><path d="M231.772,32.824c-12.153,-5.406 -26.696,-0.859 -33.498,10.921l-105.173,182.166l20.394,11.775l118.277,-204.862Z" style="fill:#fff;fill-opacity:0.501961;"/><path d="M93.101,296.559l61.183,-35.324l-61.183,-35.324l0,70.648Z" style="fill:#dacaa9;"/><path d="M93.101,296.559l20.394,-11.775l-20.394,-11.774l0,23.549Z" style="fill:#6c6b69;"/><path d="M113.495,237.686l20.394,11.774l-40.788,47.099l20.394,-58.873Z" style="fill:#fff;fill-opacity:0.25098;"/><path d="M113.495,237.686l-20.394,-11.775l0,70.648l20.394,-58.873Z" style="fill:#fff;fill-opacity:0.501961;"/><path d="M93.101,293.915l0,2.644l61.183,-35.324l96.342,-166.87l8.849,-15.326c6.795,-11.77 3.454,-26.629 -7.308,-34.442l0,0l-0.001,-0.001c-0.74,-0.537 -1.515,-1.041 -2.325,-1.509l-15.581,-8.996c-0.81,-0.467 -1.634,-0.887 -2.47,-1.259l-0.017,-0.01l-0.001,0.002l-0.2,-0.088c0.31,0.16 0.616,0.328 0.921,0.504l14.424,8.328c0.749,0.432 1.465,0.902 2.147,1.406l0.001,0l0,0c9.91,7.322 12.587,21.799 5.792,33.568l-105.191,182.196l-56.565,35.177Zm107.312,-253.331c-0.774,0.982 -1.487,2.032 -2.131,3.147l-0.073,0.127c0.669,-1.159 1.407,-2.251 2.204,-3.274Z" style="fill-opacity:0.0588235;"/></g><text x="344.309px" y="305.857px" style="font-family:'Noteworthy-Light', 'Noteworthy';font-weight:300;font-size:341.972px;fill:#6d6c6a;">Jo<tspan x="662.771px " y="305.857px ">t</tspan></text></svg>